<mxfile host="Electron" agent="Mozilla/5.0 (Windows NT 10.0; Win64; x64) AppleWebKit/537.36 (KHTML, like Gecko) draw.io/27.0.9 Chrome/134.0.6998.205 Electron/35.4.0 Safari/537.36" version="27.0.9">
  <diagram name="Page-1" id="b8ooAkGHl98oMmIeoYcj">
    <mxGraphModel dx="3204" dy="1415" grid="1" gridSize="10" guides="1" tooltips="1" connect="1" arrows="1" fold="1" page="1" pageScale="1" pageWidth="827" pageHeight="1169" math="0" shadow="0">
      <root>
        <mxCell id="0" />
        <mxCell id="1" parent="0" />
        <mxCell id="1MSXuhSF4Db2deOBjqfH-4" value="" style="swimlane;startSize=0;strokeWidth=3;" vertex="1" parent="1">
          <mxGeometry x="280" y="410" width="330" height="410" as="geometry">
            <mxRectangle x="280" y="435" width="50" height="40" as="alternateBounds" />
          </mxGeometry>
        </mxCell>
        <mxCell id="1MSXuhSF4Db2deOBjqfH-10" value="Add new programs" style="ellipse;whiteSpace=wrap;html=1;" vertex="1" parent="1MSXuhSF4Db2deOBjqfH-4">
          <mxGeometry x="200" y="250" width="90" height="60" as="geometry" />
        </mxCell>
        <mxCell id="1MSXuhSF4Db2deOBjqfH-15" value="&lt;font style=&quot;font-size: 10px;&quot;&gt;Update / Delete Programs&lt;/font&gt;" style="ellipse;whiteSpace=wrap;html=1;" vertex="1" parent="1MSXuhSF4Db2deOBjqfH-4">
          <mxGeometry x="200" y="320" width="90" height="60" as="geometry" />
        </mxCell>
        <mxCell id="1MSXuhSF4Db2deOBjqfH-23" style="edgeStyle=orthogonalEdgeStyle;rounded=0;orthogonalLoop=1;jettySize=auto;html=1;entryX=0;entryY=0.5;entryDx=0;entryDy=0;" edge="1" parent="1MSXuhSF4Db2deOBjqfH-4" source="1MSXuhSF4Db2deOBjqfH-19" target="1MSXuhSF4Db2deOBjqfH-21">
          <mxGeometry relative="1" as="geometry" />
        </mxCell>
        <mxCell id="1MSXuhSF4Db2deOBjqfH-24" value="Registered" style="edgeLabel;html=1;align=center;verticalAlign=middle;resizable=0;points=[];" vertex="1" connectable="0" parent="1MSXuhSF4Db2deOBjqfH-23">
          <mxGeometry x="0.0162" y="2" relative="1" as="geometry">
            <mxPoint as="offset" />
          </mxGeometry>
        </mxCell>
        <mxCell id="1MSXuhSF4Db2deOBjqfH-19" value="Apply to a Program" style="ellipse;whiteSpace=wrap;html=1;" vertex="1" parent="1MSXuhSF4Db2deOBjqfH-4">
          <mxGeometry x="40" y="320" width="90" height="60" as="geometry" />
        </mxCell>
        <mxCell id="1MSXuhSF4Db2deOBjqfH-21" value="View Participants" style="ellipse;whiteSpace=wrap;html=1;" vertex="1" parent="1MSXuhSF4Db2deOBjqfH-4">
          <mxGeometry x="200" y="179" width="90" height="60" as="geometry" />
        </mxCell>
        <mxCell id="1MSXuhSF4Db2deOBjqfH-25" value="&lt;font style=&quot;font-size: 10px;&quot;&gt;Set Participant Status&lt;/font&gt;" style="ellipse;whiteSpace=wrap;html=1;" vertex="1" parent="1MSXuhSF4Db2deOBjqfH-4">
          <mxGeometry x="200" y="108" width="90" height="60" as="geometry" />
        </mxCell>
        <mxCell id="1MSXuhSF4Db2deOBjqfH-27" value="View all Programs (Search &amp;amp; Filters)" style="ellipse;whiteSpace=wrap;html=1;" vertex="1" parent="1MSXuhSF4Db2deOBjqfH-4">
          <mxGeometry x="40" y="40" width="120" height="80" as="geometry" />
        </mxCell>
        <mxCell id="1MSXuhSF4Db2deOBjqfH-29" value="Display seminar applications" style="ellipse;whiteSpace=wrap;html=1;" vertex="1" parent="1MSXuhSF4Db2deOBjqfH-4">
          <mxGeometry x="50" y="141" width="100" height="66.67" as="geometry" />
        </mxCell>
        <mxCell id="1MSXuhSF4Db2deOBjqfH-31" value="Cancel an application" style="ellipse;whiteSpace=wrap;html=1;" vertex="1" parent="1MSXuhSF4Db2deOBjqfH-4">
          <mxGeometry x="40" y="239" width="90" height="60" as="geometry" />
        </mxCell>
        <mxCell id="1MSXuhSF4Db2deOBjqfH-20" style="edgeStyle=orthogonalEdgeStyle;rounded=0;orthogonalLoop=1;jettySize=auto;html=1;entryX=0;entryY=0.5;entryDx=0;entryDy=0;" edge="1" parent="1" source="1MSXuhSF4Db2deOBjqfH-6" target="1MSXuhSF4Db2deOBjqfH-19">
          <mxGeometry relative="1" as="geometry">
            <Array as="points">
              <mxPoint x="250" y="585" />
              <mxPoint x="250" y="760" />
            </Array>
          </mxGeometry>
        </mxCell>
        <mxCell id="1MSXuhSF4Db2deOBjqfH-28" style="edgeStyle=orthogonalEdgeStyle;rounded=0;orthogonalLoop=1;jettySize=auto;html=1;entryX=0;entryY=0.5;entryDx=0;entryDy=0;" edge="1" parent="1" source="1MSXuhSF4Db2deOBjqfH-6" target="1MSXuhSF4Db2deOBjqfH-27">
          <mxGeometry relative="1" as="geometry">
            <Array as="points">
              <mxPoint x="250" y="585" />
              <mxPoint x="250" y="490" />
            </Array>
          </mxGeometry>
        </mxCell>
        <mxCell id="1MSXuhSF4Db2deOBjqfH-30" style="edgeStyle=orthogonalEdgeStyle;rounded=0;orthogonalLoop=1;jettySize=auto;html=1;entryX=0;entryY=0.5;entryDx=0;entryDy=0;" edge="1" parent="1" source="1MSXuhSF4Db2deOBjqfH-6" target="1MSXuhSF4Db2deOBjqfH-29">
          <mxGeometry relative="1" as="geometry" />
        </mxCell>
        <mxCell id="1MSXuhSF4Db2deOBjqfH-32" style="edgeStyle=orthogonalEdgeStyle;rounded=0;orthogonalLoop=1;jettySize=auto;html=1;entryX=0;entryY=0.5;entryDx=0;entryDy=0;" edge="1" parent="1" source="1MSXuhSF4Db2deOBjqfH-6" target="1MSXuhSF4Db2deOBjqfH-31">
          <mxGeometry relative="1" as="geometry">
            <Array as="points">
              <mxPoint x="250" y="585" />
              <mxPoint x="250" y="679" />
            </Array>
          </mxGeometry>
        </mxCell>
        <mxCell id="1MSXuhSF4Db2deOBjqfH-6" value="User" style="shape=umlActor;verticalLabelPosition=bottom;verticalAlign=top;html=1;outlineConnect=0;" vertex="1" parent="1">
          <mxGeometry x="172" y="555" width="30" height="60" as="geometry" />
        </mxCell>
        <mxCell id="1MSXuhSF4Db2deOBjqfH-16" style="edgeStyle=orthogonalEdgeStyle;rounded=0;orthogonalLoop=1;jettySize=auto;html=1;entryX=1;entryY=0.5;entryDx=0;entryDy=0;" edge="1" parent="1" source="1MSXuhSF4Db2deOBjqfH-7" target="1MSXuhSF4Db2deOBjqfH-15">
          <mxGeometry relative="1" as="geometry" />
        </mxCell>
        <mxCell id="1MSXuhSF4Db2deOBjqfH-17" style="edgeStyle=orthogonalEdgeStyle;rounded=0;orthogonalLoop=1;jettySize=auto;html=1;entryX=1;entryY=0.5;entryDx=0;entryDy=0;" edge="1" parent="1" source="1MSXuhSF4Db2deOBjqfH-7" target="1MSXuhSF4Db2deOBjqfH-10">
          <mxGeometry relative="1" as="geometry" />
        </mxCell>
        <mxCell id="1MSXuhSF4Db2deOBjqfH-22" style="edgeStyle=orthogonalEdgeStyle;rounded=0;orthogonalLoop=1;jettySize=auto;html=1;entryX=1;entryY=0.5;entryDx=0;entryDy=0;" edge="1" parent="1" source="1MSXuhSF4Db2deOBjqfH-7" target="1MSXuhSF4Db2deOBjqfH-21">
          <mxGeometry relative="1" as="geometry" />
        </mxCell>
        <mxCell id="1MSXuhSF4Db2deOBjqfH-7" value="Admin" style="shape=umlActor;verticalLabelPosition=bottom;verticalAlign=top;html=1;outlineConnect=0;" vertex="1" parent="1">
          <mxGeometry x="706" y="660" width="30" height="60" as="geometry" />
        </mxCell>
        <mxCell id="1MSXuhSF4Db2deOBjqfH-18" style="edgeStyle=orthogonalEdgeStyle;rounded=0;orthogonalLoop=1;jettySize=auto;html=1;entryX=1;entryY=0.5;entryDx=0;entryDy=0;" edge="1" parent="1" source="1MSXuhSF4Db2deOBjqfH-8" target="1MSXuhSF4Db2deOBjqfH-10">
          <mxGeometry relative="1" as="geometry">
            <Array as="points">
              <mxPoint x="670" y="490" />
              <mxPoint x="670" y="690" />
            </Array>
          </mxGeometry>
        </mxCell>
        <mxCell id="1MSXuhSF4Db2deOBjqfH-8" value="Super Admin" style="shape=umlActor;verticalLabelPosition=bottom;verticalAlign=top;html=1;outlineConnect=0;" vertex="1" parent="1">
          <mxGeometry x="703" y="460" width="30" height="60" as="geometry" />
        </mxCell>
        <mxCell id="1MSXuhSF4Db2deOBjqfH-11" value="&amp;nbsp;Seminars &amp;amp; Programs" style="text;html=1;align=center;verticalAlign=middle;whiteSpace=wrap;rounded=0;" vertex="1" parent="1">
          <mxGeometry x="372.5" y="370" width="145" height="50" as="geometry" />
        </mxCell>
        <mxCell id="1MSXuhSF4Db2deOBjqfH-26" style="edgeStyle=orthogonalEdgeStyle;rounded=0;orthogonalLoop=1;jettySize=auto;html=1;entryX=1;entryY=0.5;entryDx=0;entryDy=0;" edge="1" parent="1" source="1MSXuhSF4Db2deOBjqfH-7" target="1MSXuhSF4Db2deOBjqfH-25">
          <mxGeometry relative="1" as="geometry" />
        </mxCell>
        <mxCell id="1MSXuhSF4Db2deOBjqfH-57" value="" style="swimlane;startSize=0;strokeWidth=3;" vertex="1" parent="1">
          <mxGeometry x="280" y="900" width="330" height="410" as="geometry">
            <mxRectangle x="280" y="435" width="50" height="40" as="alternateBounds" />
          </mxGeometry>
        </mxCell>
        <mxCell id="1MSXuhSF4Db2deOBjqfH-58" value="Add new EIC items" style="ellipse;whiteSpace=wrap;html=1;" vertex="1" parent="1MSXuhSF4Db2deOBjqfH-57">
          <mxGeometry x="200" y="261" width="90" height="60" as="geometry" />
        </mxCell>
        <mxCell id="1MSXuhSF4Db2deOBjqfH-59" value="&lt;font style=&quot;font-size: 10px;&quot;&gt;Update / Delete Items&lt;/font&gt;" style="ellipse;whiteSpace=wrap;html=1;" vertex="1" parent="1MSXuhSF4Db2deOBjqfH-57">
          <mxGeometry x="200" y="331" width="90" height="60" as="geometry" />
        </mxCell>
        <mxCell id="1MSXuhSF4Db2deOBjqfH-60" style="edgeStyle=orthogonalEdgeStyle;rounded=0;orthogonalLoop=1;jettySize=auto;html=1;entryX=0.5;entryY=1;entryDx=0;entryDy=0;" edge="1" parent="1MSXuhSF4Db2deOBjqfH-57" source="1MSXuhSF4Db2deOBjqfH-62" target="1MSXuhSF4Db2deOBjqfH-81">
          <mxGeometry relative="1" as="geometry">
            <Array as="points">
              <mxPoint x="160" y="350" />
              <mxPoint x="160" y="180" />
              <mxPoint x="245" y="180" />
            </Array>
          </mxGeometry>
        </mxCell>
        <mxCell id="1MSXuhSF4Db2deOBjqfH-61" value="Request" style="edgeLabel;html=1;align=center;verticalAlign=middle;resizable=0;points=[];" vertex="1" connectable="0" parent="1MSXuhSF4Db2deOBjqfH-60">
          <mxGeometry x="0.0162" y="2" relative="1" as="geometry">
            <mxPoint x="2" y="30" as="offset" />
          </mxGeometry>
        </mxCell>
        <mxCell id="1MSXuhSF4Db2deOBjqfH-62" value="Borrow an&amp;nbsp;&lt;div&gt;EIC item&lt;/div&gt;" style="ellipse;whiteSpace=wrap;html=1;" vertex="1" parent="1MSXuhSF4Db2deOBjqfH-57">
          <mxGeometry x="40" y="320" width="90" height="60" as="geometry" />
        </mxCell>
        <mxCell id="1MSXuhSF4Db2deOBjqfH-63" value="View Request List" style="ellipse;whiteSpace=wrap;html=1;" vertex="1" parent="1MSXuhSF4Db2deOBjqfH-57">
          <mxGeometry x="200" y="190" width="90" height="60" as="geometry" />
        </mxCell>
        <mxCell id="1MSXuhSF4Db2deOBjqfH-65" value="View all available items (Search &amp;amp; Filters)" style="ellipse;whiteSpace=wrap;html=1;" vertex="1" parent="1MSXuhSF4Db2deOBjqfH-57">
          <mxGeometry x="40" y="20" width="120" height="80" as="geometry" />
        </mxCell>
        <mxCell id="1MSXuhSF4Db2deOBjqfH-91" style="edgeStyle=orthogonalEdgeStyle;rounded=0;orthogonalLoop=1;jettySize=auto;html=1;endArrow=none;startFill=1;entryX=0.289;entryY=0.956;entryDx=0;entryDy=0;entryPerimeter=0;startArrow=classic;" edge="1" parent="1MSXuhSF4Db2deOBjqfH-57" source="1MSXuhSF4Db2deOBjqfH-66" target="1MSXuhSF4Db2deOBjqfH-81">
          <mxGeometry relative="1" as="geometry">
            <Array as="points">
              <mxPoint x="220" y="146" />
              <mxPoint x="220" y="116" />
            </Array>
          </mxGeometry>
        </mxCell>
        <mxCell id="1MSXuhSF4Db2deOBjqfH-92" value="Response" style="edgeLabel;html=1;align=center;verticalAlign=middle;resizable=0;points=[];" vertex="1" connectable="0" parent="1MSXuhSF4Db2deOBjqfH-91">
          <mxGeometry x="0.2008" y="-2" relative="1" as="geometry">
            <mxPoint x="-27" y="-3" as="offset" />
          </mxGeometry>
        </mxCell>
        <mxCell id="1MSXuhSF4Db2deOBjqfH-66" value="View all&lt;div&gt;&amp;nbsp;request status&lt;/div&gt;" style="ellipse;whiteSpace=wrap;html=1;" vertex="1" parent="1MSXuhSF4Db2deOBjqfH-57">
          <mxGeometry x="30" y="112.33" width="100" height="66.67" as="geometry" />
        </mxCell>
        <mxCell id="1MSXuhSF4Db2deOBjqfH-67" value="cancel a&amp;nbsp;&lt;div&gt;borrow request&lt;/div&gt;" style="ellipse;whiteSpace=wrap;html=1;" vertex="1" parent="1MSXuhSF4Db2deOBjqfH-57">
          <mxGeometry x="40" y="239" width="90" height="60" as="geometry" />
        </mxCell>
        <mxCell id="1MSXuhSF4Db2deOBjqfH-81" value="Approved / Reject&lt;div&gt;User Request&lt;/div&gt;" style="ellipse;whiteSpace=wrap;html=1;" vertex="1" parent="1MSXuhSF4Db2deOBjqfH-57">
          <mxGeometry x="185" y="40" width="120" height="80" as="geometry" />
        </mxCell>
        <mxCell id="1MSXuhSF4Db2deOBjqfH-68" style="edgeStyle=orthogonalEdgeStyle;rounded=0;orthogonalLoop=1;jettySize=auto;html=1;entryX=0;entryY=0.5;entryDx=0;entryDy=0;" edge="1" source="1MSXuhSF4Db2deOBjqfH-72" target="1MSXuhSF4Db2deOBjqfH-62" parent="1">
          <mxGeometry relative="1" as="geometry">
            <Array as="points">
              <mxPoint x="250" y="1105" />
              <mxPoint x="250" y="1250" />
            </Array>
          </mxGeometry>
        </mxCell>
        <mxCell id="1MSXuhSF4Db2deOBjqfH-69" style="edgeStyle=orthogonalEdgeStyle;rounded=0;orthogonalLoop=1;jettySize=auto;html=1;entryX=0;entryY=0.5;entryDx=0;entryDy=0;" edge="1" source="1MSXuhSF4Db2deOBjqfH-72" target="1MSXuhSF4Db2deOBjqfH-65" parent="1">
          <mxGeometry relative="1" as="geometry">
            <Array as="points">
              <mxPoint x="250" y="1105" />
              <mxPoint x="250" y="960" />
            </Array>
          </mxGeometry>
        </mxCell>
        <mxCell id="1MSXuhSF4Db2deOBjqfH-70" style="edgeStyle=orthogonalEdgeStyle;rounded=0;orthogonalLoop=1;jettySize=auto;html=1;entryX=0;entryY=0.5;entryDx=0;entryDy=0;" edge="1" source="1MSXuhSF4Db2deOBjqfH-72" target="1MSXuhSF4Db2deOBjqfH-66" parent="1">
          <mxGeometry relative="1" as="geometry">
            <Array as="points">
              <mxPoint x="250" y="1105" />
              <mxPoint x="250" y="1046" />
            </Array>
          </mxGeometry>
        </mxCell>
        <mxCell id="1MSXuhSF4Db2deOBjqfH-71" style="edgeStyle=orthogonalEdgeStyle;rounded=0;orthogonalLoop=1;jettySize=auto;html=1;entryX=0;entryY=0.5;entryDx=0;entryDy=0;" edge="1" target="1MSXuhSF4Db2deOBjqfH-67" parent="1">
          <mxGeometry relative="1" as="geometry">
            <mxPoint x="200" y="1105" as="sourcePoint" />
            <Array as="points">
              <mxPoint x="250" y="1105" />
              <mxPoint x="250" y="1169" />
            </Array>
          </mxGeometry>
        </mxCell>
        <mxCell id="1MSXuhSF4Db2deOBjqfH-72" value="User" style="shape=umlActor;verticalLabelPosition=bottom;verticalAlign=top;html=1;outlineConnect=0;" vertex="1" parent="1">
          <mxGeometry x="172" y="1075" width="30" height="60" as="geometry" />
        </mxCell>
        <mxCell id="1MSXuhSF4Db2deOBjqfH-84" style="edgeStyle=orthogonalEdgeStyle;rounded=0;orthogonalLoop=1;jettySize=auto;html=1;entryX=1;entryY=0.5;entryDx=0;entryDy=0;" edge="1" parent="1" source="1MSXuhSF4Db2deOBjqfH-76" target="1MSXuhSF4Db2deOBjqfH-63">
          <mxGeometry relative="1" as="geometry">
            <Array as="points">
              <mxPoint x="640" y="1160" />
              <mxPoint x="640" y="1120" />
            </Array>
          </mxGeometry>
        </mxCell>
        <mxCell id="1MSXuhSF4Db2deOBjqfH-86" style="edgeStyle=orthogonalEdgeStyle;rounded=0;orthogonalLoop=1;jettySize=auto;html=1;" edge="1" parent="1" source="1MSXuhSF4Db2deOBjqfH-76" target="1MSXuhSF4Db2deOBjqfH-58">
          <mxGeometry relative="1" as="geometry">
            <Array as="points">
              <mxPoint x="640" y="1160" />
              <mxPoint x="640" y="1191" />
            </Array>
          </mxGeometry>
        </mxCell>
        <mxCell id="1MSXuhSF4Db2deOBjqfH-87" style="edgeStyle=orthogonalEdgeStyle;rounded=0;orthogonalLoop=1;jettySize=auto;html=1;entryX=1;entryY=0.5;entryDx=0;entryDy=0;" edge="1" parent="1" source="1MSXuhSF4Db2deOBjqfH-76" target="1MSXuhSF4Db2deOBjqfH-59">
          <mxGeometry relative="1" as="geometry">
            <Array as="points">
              <mxPoint x="640" y="1160" />
              <mxPoint x="640" y="1260" />
              <mxPoint x="570" y="1260" />
            </Array>
          </mxGeometry>
        </mxCell>
        <mxCell id="1MSXuhSF4Db2deOBjqfH-88" style="edgeStyle=orthogonalEdgeStyle;rounded=0;orthogonalLoop=1;jettySize=auto;html=1;entryX=1;entryY=0.5;entryDx=0;entryDy=0;" edge="1" parent="1" source="1MSXuhSF4Db2deOBjqfH-76" target="1MSXuhSF4Db2deOBjqfH-81">
          <mxGeometry relative="1" as="geometry">
            <Array as="points">
              <mxPoint x="640" y="1160" />
              <mxPoint x="640" y="980" />
            </Array>
          </mxGeometry>
        </mxCell>
        <mxCell id="1MSXuhSF4Db2deOBjqfH-76" value="Admin" style="shape=umlActor;verticalLabelPosition=bottom;verticalAlign=top;html=1;outlineConnect=0;" vertex="1" parent="1">
          <mxGeometry x="703" y="1130" width="30" height="60" as="geometry" />
        </mxCell>
        <mxCell id="1MSXuhSF4Db2deOBjqfH-90" style="edgeStyle=orthogonalEdgeStyle;rounded=0;orthogonalLoop=1;jettySize=auto;html=1;entryX=1;entryY=0.5;entryDx=0;entryDy=0;" edge="1" parent="1" source="1MSXuhSF4Db2deOBjqfH-78" target="1MSXuhSF4Db2deOBjqfH-63">
          <mxGeometry relative="1" as="geometry">
            <Array as="points">
              <mxPoint x="640" y="1060" />
              <mxPoint x="640" y="1120" />
            </Array>
          </mxGeometry>
        </mxCell>
        <mxCell id="1MSXuhSF4Db2deOBjqfH-78" value="Super Admin" style="shape=umlActor;verticalLabelPosition=bottom;verticalAlign=top;html=1;outlineConnect=0;" vertex="1" parent="1">
          <mxGeometry x="703" y="1030" width="30" height="60" as="geometry" />
        </mxCell>
        <mxCell id="1MSXuhSF4Db2deOBjqfH-79" value="EIC Items" style="text;html=1;align=center;verticalAlign=middle;whiteSpace=wrap;rounded=0;" vertex="1" parent="1">
          <mxGeometry x="372.5" y="860" width="145" height="50" as="geometry" />
        </mxCell>
        <mxCell id="1MSXuhSF4Db2deOBjqfH-94" value="" style="swimlane;startSize=0;strokeWidth=3;" vertex="1" parent="1">
          <mxGeometry x="-372" y="410" width="330" height="410" as="geometry">
            <mxRectangle x="280" y="435" width="50" height="40" as="alternateBounds" />
          </mxGeometry>
        </mxCell>
        <mxCell id="1MSXuhSF4Db2deOBjqfH-95" value="Add new Distribution" style="ellipse;whiteSpace=wrap;html=1;" vertex="1" parent="1MSXuhSF4Db2deOBjqfH-94">
          <mxGeometry x="200" y="261" width="90" height="60" as="geometry" />
        </mxCell>
        <mxCell id="1MSXuhSF4Db2deOBjqfH-96" value="&lt;font style=&quot;font-size: 10px;&quot;&gt;Update / Delete Distribution&lt;/font&gt;" style="ellipse;whiteSpace=wrap;html=1;" vertex="1" parent="1MSXuhSF4Db2deOBjqfH-94">
          <mxGeometry x="200" y="331" width="90" height="60" as="geometry" />
        </mxCell>
        <mxCell id="1MSXuhSF4Db2deOBjqfH-97" style="edgeStyle=orthogonalEdgeStyle;rounded=0;orthogonalLoop=1;jettySize=auto;html=1;entryX=0;entryY=0.5;entryDx=0;entryDy=0;" edge="1" parent="1MSXuhSF4Db2deOBjqfH-94" source="1MSXuhSF4Db2deOBjqfH-99" target="1MSXuhSF4Db2deOBjqfH-100">
          <mxGeometry relative="1" as="geometry">
            <Array as="points">
              <mxPoint x="160" y="350" />
              <mxPoint x="160" y="220" />
            </Array>
          </mxGeometry>
        </mxCell>
        <mxCell id="1MSXuhSF4Db2deOBjqfH-98" value="Request" style="edgeLabel;html=1;align=center;verticalAlign=middle;resizable=0;points=[];" vertex="1" connectable="0" parent="1MSXuhSF4Db2deOBjqfH-97">
          <mxGeometry x="0.0162" y="2" relative="1" as="geometry">
            <mxPoint as="offset" />
          </mxGeometry>
        </mxCell>
        <mxCell id="1MSXuhSF4Db2deOBjqfH-99" value="Reserve for a distribution" style="ellipse;whiteSpace=wrap;html=1;" vertex="1" parent="1MSXuhSF4Db2deOBjqfH-94">
          <mxGeometry x="40" y="320" width="90" height="60" as="geometry" />
        </mxCell>
        <mxCell id="1MSXuhSF4Db2deOBjqfH-100" value="View Request List" style="ellipse;whiteSpace=wrap;html=1;" vertex="1" parent="1MSXuhSF4Db2deOBjqfH-94">
          <mxGeometry x="200" y="190" width="90" height="60" as="geometry" />
        </mxCell>
        <mxCell id="1MSXuhSF4Db2deOBjqfH-101" value="View all available distributions (Search &amp;amp; Filters)" style="ellipse;whiteSpace=wrap;html=1;" vertex="1" parent="1MSXuhSF4Db2deOBjqfH-94">
          <mxGeometry x="40" y="20" width="120" height="80" as="geometry" />
        </mxCell>
        <mxCell id="1MSXuhSF4Db2deOBjqfH-102" style="edgeStyle=orthogonalEdgeStyle;rounded=0;orthogonalLoop=1;jettySize=auto;html=1;endArrow=none;startFill=1;entryX=0.289;entryY=0.956;entryDx=0;entryDy=0;entryPerimeter=0;startArrow=classic;" edge="1" parent="1MSXuhSF4Db2deOBjqfH-94" source="1MSXuhSF4Db2deOBjqfH-104" target="1MSXuhSF4Db2deOBjqfH-106">
          <mxGeometry relative="1" as="geometry">
            <Array as="points">
              <mxPoint x="220" y="146" />
              <mxPoint x="220" y="116" />
            </Array>
          </mxGeometry>
        </mxCell>
        <mxCell id="1MSXuhSF4Db2deOBjqfH-103" value="Response" style="edgeLabel;html=1;align=center;verticalAlign=middle;resizable=0;points=[];" vertex="1" connectable="0" parent="1MSXuhSF4Db2deOBjqfH-102">
          <mxGeometry x="0.2008" y="-2" relative="1" as="geometry">
            <mxPoint x="-27" y="-3" as="offset" />
          </mxGeometry>
        </mxCell>
        <mxCell id="1MSXuhSF4Db2deOBjqfH-104" value="View all&lt;div&gt;&amp;nbsp;request status&lt;/div&gt;" style="ellipse;whiteSpace=wrap;html=1;" vertex="1" parent="1MSXuhSF4Db2deOBjqfH-94">
          <mxGeometry x="30" y="112.33" width="100" height="66.67" as="geometry" />
        </mxCell>
        <mxCell id="1MSXuhSF4Db2deOBjqfH-105" value="Cancel&amp;nbsp;&lt;div&gt;Request&lt;/div&gt;" style="ellipse;whiteSpace=wrap;html=1;" vertex="1" parent="1MSXuhSF4Db2deOBjqfH-94">
          <mxGeometry x="40" y="239" width="90" height="60" as="geometry" />
        </mxCell>
        <mxCell id="1MSXuhSF4Db2deOBjqfH-106" value="Approved / Reject&lt;div&gt;User Request&lt;/div&gt;" style="ellipse;whiteSpace=wrap;html=1;" vertex="1" parent="1MSXuhSF4Db2deOBjqfH-94">
          <mxGeometry x="185" y="40" width="120" height="80" as="geometry" />
        </mxCell>
        <mxCell id="1MSXuhSF4Db2deOBjqfH-107" style="edgeStyle=orthogonalEdgeStyle;rounded=0;orthogonalLoop=1;jettySize=auto;html=1;entryX=0;entryY=0.5;entryDx=0;entryDy=0;" edge="1" source="1MSXuhSF4Db2deOBjqfH-111" target="1MSXuhSF4Db2deOBjqfH-99" parent="1">
          <mxGeometry relative="1" as="geometry">
            <Array as="points">
              <mxPoint x="-402" y="615" />
              <mxPoint x="-402" y="760" />
            </Array>
          </mxGeometry>
        </mxCell>
        <mxCell id="1MSXuhSF4Db2deOBjqfH-108" style="edgeStyle=orthogonalEdgeStyle;rounded=0;orthogonalLoop=1;jettySize=auto;html=1;entryX=0;entryY=0.5;entryDx=0;entryDy=0;" edge="1" source="1MSXuhSF4Db2deOBjqfH-111" target="1MSXuhSF4Db2deOBjqfH-101" parent="1">
          <mxGeometry relative="1" as="geometry">
            <Array as="points">
              <mxPoint x="-402" y="615" />
              <mxPoint x="-402" y="470" />
            </Array>
          </mxGeometry>
        </mxCell>
        <mxCell id="1MSXuhSF4Db2deOBjqfH-109" style="edgeStyle=orthogonalEdgeStyle;rounded=0;orthogonalLoop=1;jettySize=auto;html=1;entryX=0;entryY=0.5;entryDx=0;entryDy=0;" edge="1" source="1MSXuhSF4Db2deOBjqfH-111" target="1MSXuhSF4Db2deOBjqfH-104" parent="1">
          <mxGeometry relative="1" as="geometry">
            <Array as="points">
              <mxPoint x="-402" y="615" />
              <mxPoint x="-402" y="556" />
            </Array>
          </mxGeometry>
        </mxCell>
        <mxCell id="1MSXuhSF4Db2deOBjqfH-110" style="edgeStyle=orthogonalEdgeStyle;rounded=0;orthogonalLoop=1;jettySize=auto;html=1;entryX=0;entryY=0.5;entryDx=0;entryDy=0;" edge="1" target="1MSXuhSF4Db2deOBjqfH-105" parent="1">
          <mxGeometry relative="1" as="geometry">
            <mxPoint x="-452" y="615" as="sourcePoint" />
            <Array as="points">
              <mxPoint x="-402" y="615" />
              <mxPoint x="-402" y="679" />
            </Array>
          </mxGeometry>
        </mxCell>
        <mxCell id="1MSXuhSF4Db2deOBjqfH-111" value="User" style="shape=umlActor;verticalLabelPosition=bottom;verticalAlign=top;html=1;outlineConnect=0;" vertex="1" parent="1">
          <mxGeometry x="-480" y="585" width="30" height="60" as="geometry" />
        </mxCell>
        <mxCell id="1MSXuhSF4Db2deOBjqfH-112" style="edgeStyle=orthogonalEdgeStyle;rounded=0;orthogonalLoop=1;jettySize=auto;html=1;entryX=1;entryY=0.5;entryDx=0;entryDy=0;" edge="1" source="1MSXuhSF4Db2deOBjqfH-116" target="1MSXuhSF4Db2deOBjqfH-100" parent="1">
          <mxGeometry relative="1" as="geometry">
            <Array as="points">
              <mxPoint x="-12" y="670" />
              <mxPoint x="-12" y="630" />
            </Array>
          </mxGeometry>
        </mxCell>
        <mxCell id="1MSXuhSF4Db2deOBjqfH-113" style="edgeStyle=orthogonalEdgeStyle;rounded=0;orthogonalLoop=1;jettySize=auto;html=1;" edge="1" source="1MSXuhSF4Db2deOBjqfH-116" target="1MSXuhSF4Db2deOBjqfH-95" parent="1">
          <mxGeometry relative="1" as="geometry">
            <Array as="points">
              <mxPoint x="-12" y="670" />
              <mxPoint x="-12" y="701" />
            </Array>
          </mxGeometry>
        </mxCell>
        <mxCell id="1MSXuhSF4Db2deOBjqfH-114" style="edgeStyle=orthogonalEdgeStyle;rounded=0;orthogonalLoop=1;jettySize=auto;html=1;entryX=1;entryY=0.5;entryDx=0;entryDy=0;" edge="1" source="1MSXuhSF4Db2deOBjqfH-116" target="1MSXuhSF4Db2deOBjqfH-96" parent="1">
          <mxGeometry relative="1" as="geometry">
            <Array as="points">
              <mxPoint x="-12" y="670" />
              <mxPoint x="-12" y="770" />
              <mxPoint x="-82" y="770" />
            </Array>
          </mxGeometry>
        </mxCell>
        <mxCell id="1MSXuhSF4Db2deOBjqfH-115" style="edgeStyle=orthogonalEdgeStyle;rounded=0;orthogonalLoop=1;jettySize=auto;html=1;entryX=1;entryY=0.5;entryDx=0;entryDy=0;" edge="1" source="1MSXuhSF4Db2deOBjqfH-116" target="1MSXuhSF4Db2deOBjqfH-106" parent="1">
          <mxGeometry relative="1" as="geometry">
            <Array as="points">
              <mxPoint x="-12" y="670" />
              <mxPoint x="-12" y="490" />
            </Array>
          </mxGeometry>
        </mxCell>
        <mxCell id="1MSXuhSF4Db2deOBjqfH-116" value="Admin" style="shape=umlActor;verticalLabelPosition=bottom;verticalAlign=top;html=1;outlineConnect=0;" vertex="1" parent="1">
          <mxGeometry x="51" y="640" width="30" height="60" as="geometry" />
        </mxCell>
        <mxCell id="1MSXuhSF4Db2deOBjqfH-117" style="edgeStyle=orthogonalEdgeStyle;rounded=0;orthogonalLoop=1;jettySize=auto;html=1;entryX=1;entryY=0.5;entryDx=0;entryDy=0;" edge="1" source="1MSXuhSF4Db2deOBjqfH-118" target="1MSXuhSF4Db2deOBjqfH-100" parent="1">
          <mxGeometry relative="1" as="geometry">
            <Array as="points">
              <mxPoint x="-12" y="570" />
              <mxPoint x="-12" y="630" />
            </Array>
          </mxGeometry>
        </mxCell>
        <mxCell id="1MSXuhSF4Db2deOBjqfH-118" value="Super Admin" style="shape=umlActor;verticalLabelPosition=bottom;verticalAlign=top;html=1;outlineConnect=0;" vertex="1" parent="1">
          <mxGeometry x="51" y="540" width="30" height="60" as="geometry" />
        </mxCell>
        <mxCell id="1MSXuhSF4Db2deOBjqfH-119" value="Distributions" style="text;html=1;align=center;verticalAlign=middle;whiteSpace=wrap;rounded=0;" vertex="1" parent="1">
          <mxGeometry x="-279.5" y="370" width="145" height="50" as="geometry" />
        </mxCell>
        <mxCell id="1MSXuhSF4Db2deOBjqfH-148" value="" style="swimlane;startSize=0;strokeWidth=3;" vertex="1" parent="1">
          <mxGeometry x="-379.5" y="920" width="330" height="410" as="geometry">
            <mxRectangle x="280" y="435" width="50" height="40" as="alternateBounds" />
          </mxGeometry>
        </mxCell>
        <mxCell id="1MSXuhSF4Db2deOBjqfH-175" value="Register an Account" style="ellipse;whiteSpace=wrap;html=1;" vertex="1" parent="1MSXuhSF4Db2deOBjqfH-148">
          <mxGeometry x="29.5" y="50" width="90" height="60" as="geometry" />
        </mxCell>
        <mxCell id="1MSXuhSF4Db2deOBjqfH-176" value="Login" style="ellipse;whiteSpace=wrap;html=1;" vertex="1" parent="1MSXuhSF4Db2deOBjqfH-148">
          <mxGeometry x="29.5" y="135" width="90" height="60" as="geometry" />
        </mxCell>
        <mxCell id="1MSXuhSF4Db2deOBjqfH-179" value="Update profile information" style="ellipse;whiteSpace=wrap;html=1;" vertex="1" parent="1MSXuhSF4Db2deOBjqfH-148">
          <mxGeometry x="29.5" y="210" width="90" height="60" as="geometry" />
        </mxCell>
        <mxCell id="1MSXuhSF4Db2deOBjqfH-180" value="Change&amp;nbsp;&lt;div&gt;profile picture&lt;/div&gt;" style="ellipse;whiteSpace=wrap;html=1;" vertex="1" parent="1MSXuhSF4Db2deOBjqfH-148">
          <mxGeometry x="29.5" y="290" width="90" height="60" as="geometry" />
        </mxCell>
        <mxCell id="1MSXuhSF4Db2deOBjqfH-185" value="View all accounts" style="ellipse;whiteSpace=wrap;html=1;" vertex="1" parent="1MSXuhSF4Db2deOBjqfH-148">
          <mxGeometry x="189.5" y="210" width="90" height="60" as="geometry" />
        </mxCell>
        <mxCell id="1MSXuhSF4Db2deOBjqfH-192" value="&lt;span style=&quot;font-size: 10px;&quot;&gt;All account access&lt;/span&gt;&lt;br&gt;&lt;div&gt;&lt;div&gt;&lt;font style=&quot;font-size: 10px;&quot;&gt;(Edit, Update,&amp;nbsp;&lt;/font&gt;&lt;/div&gt;&lt;div&gt;&lt;font style=&quot;font-size: 10px;&quot;&gt;Delete)&lt;/font&gt;&lt;/div&gt;&lt;/div&gt;" style="ellipse;whiteSpace=wrap;html=1;" vertex="1" parent="1MSXuhSF4Db2deOBjqfH-148">
          <mxGeometry x="174.5" y="50" width="120" height="80" as="geometry" />
        </mxCell>
        <mxCell id="1MSXuhSF4Db2deOBjqfH-196" value="Change username / password" style="ellipse;whiteSpace=wrap;html=1;" vertex="1" parent="1MSXuhSF4Db2deOBjqfH-148">
          <mxGeometry x="189.5" y="335" width="90" height="60" as="geometry" />
        </mxCell>
        <mxCell id="1MSXuhSF4Db2deOBjqfH-177" style="edgeStyle=orthogonalEdgeStyle;rounded=0;orthogonalLoop=1;jettySize=auto;html=1;entryX=0;entryY=0.5;entryDx=0;entryDy=0;" edge="1" parent="1" source="1MSXuhSF4Db2deOBjqfH-165" target="1MSXuhSF4Db2deOBjqfH-176">
          <mxGeometry relative="1" as="geometry">
            <Array as="points">
              <mxPoint x="-410" y="1160" />
              <mxPoint x="-410" y="1085" />
            </Array>
          </mxGeometry>
        </mxCell>
        <mxCell id="1MSXuhSF4Db2deOBjqfH-181" style="edgeStyle=orthogonalEdgeStyle;rounded=0;orthogonalLoop=1;jettySize=auto;html=1;entryX=0;entryY=0.5;entryDx=0;entryDy=0;" edge="1" parent="1" source="1MSXuhSF4Db2deOBjqfH-165" target="1MSXuhSF4Db2deOBjqfH-179">
          <mxGeometry relative="1" as="geometry" />
        </mxCell>
        <mxCell id="1MSXuhSF4Db2deOBjqfH-182" style="edgeStyle=orthogonalEdgeStyle;rounded=0;orthogonalLoop=1;jettySize=auto;html=1;entryX=0;entryY=0.5;entryDx=0;entryDy=0;" edge="1" parent="1" source="1MSXuhSF4Db2deOBjqfH-165" target="1MSXuhSF4Db2deOBjqfH-180">
          <mxGeometry relative="1" as="geometry">
            <Array as="points">
              <mxPoint x="-410" y="1160" />
              <mxPoint x="-410" y="1240" />
            </Array>
          </mxGeometry>
        </mxCell>
        <mxCell id="1MSXuhSF4Db2deOBjqfH-198" style="edgeStyle=orthogonalEdgeStyle;rounded=0;orthogonalLoop=1;jettySize=auto;html=1;entryX=0;entryY=0.5;entryDx=0;entryDy=0;" edge="1" parent="1" source="1MSXuhSF4Db2deOBjqfH-165" target="1MSXuhSF4Db2deOBjqfH-196">
          <mxGeometry relative="1" as="geometry">
            <Array as="points">
              <mxPoint x="-410" y="1160" />
              <mxPoint x="-410" y="1285" />
            </Array>
          </mxGeometry>
        </mxCell>
        <mxCell id="1MSXuhSF4Db2deOBjqfH-165" value="User" style="shape=umlActor;verticalLabelPosition=bottom;verticalAlign=top;html=1;outlineConnect=0;" vertex="1" parent="1">
          <mxGeometry x="-487.5" y="1130" width="30" height="60" as="geometry" />
        </mxCell>
        <mxCell id="1MSXuhSF4Db2deOBjqfH-186" style="edgeStyle=orthogonalEdgeStyle;rounded=0;orthogonalLoop=1;jettySize=auto;html=1;entryX=1;entryY=0.5;entryDx=0;entryDy=0;" edge="1" parent="1" source="1MSXuhSF4Db2deOBjqfH-170" target="1MSXuhSF4Db2deOBjqfH-185">
          <mxGeometry relative="1" as="geometry">
            <Array as="points">
              <mxPoint x="-30" y="1240" />
              <mxPoint x="-30" y="1160" />
            </Array>
          </mxGeometry>
        </mxCell>
        <mxCell id="1MSXuhSF4Db2deOBjqfH-189" style="edgeStyle=orthogonalEdgeStyle;rounded=0;orthogonalLoop=1;jettySize=auto;html=1;entryX=1;entryY=0.5;entryDx=0;entryDy=0;" edge="1" parent="1" target="1MSXuhSF4Db2deOBjqfH-180">
          <mxGeometry relative="1" as="geometry">
            <mxPoint x="40" y="1240" as="sourcePoint" />
            <Array as="points">
              <mxPoint x="40" y="1240" />
            </Array>
          </mxGeometry>
        </mxCell>
        <mxCell id="1MSXuhSF4Db2deOBjqfH-190" style="edgeStyle=orthogonalEdgeStyle;rounded=0;orthogonalLoop=1;jettySize=auto;html=1;entryX=1;entryY=0.5;entryDx=0;entryDy=0;" edge="1" parent="1" target="1MSXuhSF4Db2deOBjqfH-179">
          <mxGeometry relative="1" as="geometry">
            <mxPoint x="40" y="1240" as="sourcePoint" />
            <Array as="points">
              <mxPoint x="40" y="1240" />
              <mxPoint x="-220" y="1240" />
              <mxPoint x="-220" y="1160" />
            </Array>
          </mxGeometry>
        </mxCell>
        <mxCell id="1MSXuhSF4Db2deOBjqfH-191" style="edgeStyle=orthogonalEdgeStyle;rounded=0;orthogonalLoop=1;jettySize=auto;html=1;entryX=1;entryY=0.5;entryDx=0;entryDy=0;" edge="1" parent="1" target="1MSXuhSF4Db2deOBjqfH-176">
          <mxGeometry relative="1" as="geometry">
            <mxPoint x="40" y="1240" as="sourcePoint" />
            <Array as="points">
              <mxPoint x="40" y="1240" />
              <mxPoint x="-220" y="1240" />
              <mxPoint x="-220" y="1085" />
            </Array>
          </mxGeometry>
        </mxCell>
        <mxCell id="1MSXuhSF4Db2deOBjqfH-197" style="edgeStyle=orthogonalEdgeStyle;rounded=0;orthogonalLoop=1;jettySize=auto;html=1;entryX=1;entryY=0.5;entryDx=0;entryDy=0;" edge="1" parent="1" target="1MSXuhSF4Db2deOBjqfH-196">
          <mxGeometry relative="1" as="geometry">
            <mxPoint x="40" y="1240" as="sourcePoint" />
            <Array as="points">
              <mxPoint x="-30" y="1240" />
              <mxPoint x="-30" y="1285" />
            </Array>
          </mxGeometry>
        </mxCell>
        <mxCell id="1MSXuhSF4Db2deOBjqfH-170" value="Admin" style="shape=umlActor;verticalLabelPosition=bottom;verticalAlign=top;html=1;outlineConnect=0;" vertex="1" parent="1">
          <mxGeometry x="43.5" y="1210" width="30" height="60" as="geometry" />
        </mxCell>
        <mxCell id="1MSXuhSF4Db2deOBjqfH-187" style="edgeStyle=orthogonalEdgeStyle;rounded=0;orthogonalLoop=1;jettySize=auto;html=1;entryX=1;entryY=0.5;entryDx=0;entryDy=0;" edge="1" parent="1" source="1MSXuhSF4Db2deOBjqfH-172" target="1MSXuhSF4Db2deOBjqfH-185">
          <mxGeometry relative="1" as="geometry">
            <Array as="points">
              <mxPoint x="-30" y="1080" />
              <mxPoint x="-30" y="1160" />
            </Array>
          </mxGeometry>
        </mxCell>
        <mxCell id="1MSXuhSF4Db2deOBjqfH-193" style="edgeStyle=orthogonalEdgeStyle;rounded=0;orthogonalLoop=1;jettySize=auto;html=1;entryX=1;entryY=0.5;entryDx=0;entryDy=0;" edge="1" parent="1" target="1MSXuhSF4Db2deOBjqfH-192">
          <mxGeometry relative="1" as="geometry">
            <mxPoint x="59" y="1040" as="sourcePoint" />
            <Array as="points">
              <mxPoint x="59" y="1010" />
            </Array>
          </mxGeometry>
        </mxCell>
        <mxCell id="1MSXuhSF4Db2deOBjqfH-172" value="Super Admin" style="shape=umlActor;verticalLabelPosition=bottom;verticalAlign=top;html=1;outlineConnect=0;" vertex="1" parent="1">
          <mxGeometry x="43.5" y="1050" width="30" height="60" as="geometry" />
        </mxCell>
        <mxCell id="1MSXuhSF4Db2deOBjqfH-173" value="Account Management" style="text;html=1;align=center;verticalAlign=middle;whiteSpace=wrap;rounded=0;" vertex="1" parent="1">
          <mxGeometry x="-287" y="880" width="145" height="50" as="geometry" />
        </mxCell>
        <mxCell id="1MSXuhSF4Db2deOBjqfH-195" style="edgeStyle=orthogonalEdgeStyle;rounded=0;orthogonalLoop=1;jettySize=auto;html=1;entryX=0;entryY=0.5;entryDx=0;entryDy=0;" edge="1" parent="1" source="1MSXuhSF4Db2deOBjqfH-194" target="1MSXuhSF4Db2deOBjqfH-175">
          <mxGeometry relative="1" as="geometry" />
        </mxCell>
        <mxCell id="1MSXuhSF4Db2deOBjqfH-194" value="Anonymous User" style="shape=umlActor;verticalLabelPosition=bottom;verticalAlign=top;html=1;outlineConnect=0;" vertex="1" parent="1">
          <mxGeometry x="-487.5" y="970" width="30" height="60" as="geometry" />
        </mxCell>
      </root>
    </mxGraphModel>
  </diagram>
</mxfile>
